<svg xmlns="http://www.w3.org/2000/svg" width="1312.154" height="1161" viewBox="0 0 1312.154 1161">
  <defs>
    <style>
      .cls-1 {
        fill: #fff;
        fill-rule: evenodd;
      }
    </style>
  </defs>
  <path id="Forma_1" data-name="Forma 1" class="cls-1" d="M1347.46,661.916L1150,466l1-275s0-26-29.97-26.085c-47.08-.134-203.279,0-203.279,0S889.5,165,890,191c0.472,24.569-1,110-1,110L714.474,147.836s-33.179-22.106-58.08,0C552.566,240.007,50,663,50,663c-19.665,29.781,2.451,84,54.642,83.5,0.886-.009,87.118,0,87.118,0L192,1227s2.756,72,74,72c78.363,0,240.772.01,240.772,0.01h355.76S1043,1299,1104,1299s75-72.84,75-72,0.11-480.5.11-480.5h116.16C1350.25,748.231,1366.42,679.236,1347.46,661.916ZM946.79,397.548V223.073h145.2V485.864M540.236,1240.84V833.734c1.815-.188,290.4,1.811,290.4,0V1240.84h-290.4ZM1091.99,485.864L1204,591s102,101,103,101c-6.28,0-76.38,1.191-120,0-39.99-1.092-65.97,31.9-65.97,54.5V1240.84H888.711V833.734c0-35.365-22.058-58.158-58.079-58.158h-290.4c-36.021,0-58.079,22.793-58.079,58.158V1240.84H249.84s0.907-493.055,0-494.343c-0.228-.551-1.736-52.364-58.08-54.158-1.888-.06-93.88.675-93.76,0.661,1.885-.217,35.681-33.74,35.681-33.74S685.075,190.394,685.434,193.994c0.315,3.154,230.443,200.872,232.317,203.554,0.269,0.386,29.039,0,29.039,0" transform="translate(-42.906 -138)"/>
</svg>
